<?xml version="1.0" encoding="UTF-8"?>
<!DOCTYPE svg PUBLIC "-//W3C//DTD SVG 1.1//EN" "http://www.w3.org/Graphics/SVG/1.1/DTD/svg11.dtd">
<!-- Creator: CorelDRAW 2017 -->
<svg xmlns="http://www.w3.org/2000/svg" xml:space="preserve" width="110mm" height="110mm" version="1.1" style="shape-rendering:geometricPrecision; text-rendering:geometricPrecision; image-rendering:optimizeQuality; fill-rule:evenodd; clip-rule:evenodd"
viewBox="0 0 11000 11000"
 xmlns:xlink="http://www.w3.org/1999/xlink">
 <defs>
  <style type="text/css">
   <![CDATA[
    .fil1 {fill:black}
    .fil0 {fill:white}
   ]]>
  </style>
 </defs>
 <g id="Layer_x0020_1">
  <metadata id="CorelCorpID_0Corel-Layer"/>
  <path class="fil0" d="M5500 500c-2761,0 -5000,2239 -5000,5000 0,2761 2239,5000 5000,5000 2761,0 5000,-2239 5000,-5000 0,-2761 -2239,-5000 -5000,-5000z"/>
  <path class="fil1" d="M5494.61 6312.12c0,77.56 35.45,74.44 35.45,118.17 0,65.38 -56.09,83.6 -87.31,149.04 -29.26,61.31 -25.1,123.01 -63.72,172.62 -36.28,46.6 -98.63,54.53 -146.73,89.63 -123.01,89.79 5.53,264 -221.88,262.63 -198.19,-1.2 -93.32,63.9 -319.3,165.2 -23.13,10.37 -56.68,23.28 -89.66,29.29 -37.41,6.82 -73.1,-5.74 -134.96,-5.74 -124.72,0 -214.75,51.99 -223.93,-71.51 -4.71,-63.31 15.85,-52.75 -24.23,-82.12 -5.99,-2.65 7.58,-26.5 -27.34,7.23 -66.77,64.47 55.76,235.42 -122.81,155.08 -34.91,-15.71 -67.15,-25.63 -107.28,-34.87 -162.59,-37.41 -99.33,-33.58 -144.37,-127.44 -46.94,3.91 -28.46,11.82 -59.08,11.82 -59.1,0 -90.47,-86.69 -161.64,-110.16 -73.84,-24.35 -109.71,11.78 -169.42,-102.38 -68.47,-130.87 -160.13,-166.44 -181.65,-220.95 -18.39,-46.58 4.56,-75.16 4.56,-121.93 0,-111.08 -54.41,-141.8 82.73,-141.8 86.7,0 38.14,66.78 229.46,16.75 217.99,-57 69.46,-14.48 244.71,99.94 47.42,30.96 248.17,66.28 321.75,29.35 48.8,-24.49 38.68,-39.82 65.53,-65.1 59.49,-56 277.86,75.72 400.42,-24.44 54.65,-44.66 47.16,-89.68 133.99,-102.36 110.04,-16.07 262.41,-0.89 314.47,-158.21 33.32,-100.67 54.87,-27.83 136.49,-99.87 152.72,-134.81 46.12,-189.98 125.67,-228.84 40.03,-19.55 61.14,-0.68 98.03,-20.15 62.93,-33.21 11,-122.65 92.05,-144.3 75.3,55.17 32.98,209.14 52.4,278.49 10.69,38.18 30.32,42.43 30.32,87.85 0,29.39 -82.72,115.71 -82.72,189.08zm3025.23 -353.45l0 61.81c-6.72,60.1 -35.25,120.98 -106.52,173.31 -98.92,72.64 -35.29,92.02 -35.29,212.87 0,232.44 -151.38,239.33 -187.54,320.6 -20.98,47.14 -5.5,47.6 -36.52,93.47 -66.57,98.43 -125.11,104.36 -198.77,179.39 -23.37,23.8 -40.26,40.4 -55.97,74.01 -20.78,44.45 -9.83,54.18 -42.58,87.41 -53.2,53.99 -139.65,6.75 -218.69,29.48 -35.22,10.13 -139.61,168.92 -159.45,218.7 -44.19,110.89 -85.96,7.61 -147.83,88.2 -73.53,95.8 -96.56,152.43 -226.19,175.92 -132.45,24.01 -0.39,71.74 -191.6,340.18 -138.03,193.77 -302.82,84.91 -389.58,154.02 -48.98,39.01 -63.12,116.34 -104.92,166.88 -114.7,138.71 -412.24,33.41 -415.64,33.41 -48.39,0 -67.27,63.68 -114.34,86.56 -210.91,102.52 -313.81,0.3 -418.5,-14.59 -110.41,-15.71 -254.94,20.78 -340.66,-72.94 -126.46,-138.25 -139.06,8.88 -297.64,-127.79 -270.44,-233.08 -149.46,-197.53 -533.88,-269.7 -132.24,-24.82 -94.64,-44.76 -173.93,-97.86 -35.05,8.16 -35.22,14.02 -70.45,24.09 -28.43,8.12 -44.61,8.65 -82.92,11.93 -74.97,6.41 -79.9,13.07 -160.58,-5.62 -109.26,-25.31 -154.64,-82.64 -220.97,-157.26 -63.09,-70.97 -178.34,-65.1 -272.47,-105.68 -230.96,-99.56 -152.1,-255.98 -217.76,-349.47 -73.05,-104.01 -268.3,-38.42 -252.09,-292.75 14.31,-224.5 -81.44,-146.22 -93.22,-283.7 -5.77,-67.36 -7.4,-105.62 -17.01,-172.06 -6.93,-47.83 -30.61,-127.08 -30.61,-158.47 0,-93.99 106.35,-109.94 106.35,-165.44 0,-59.8 -85.97,-100.52 -129.99,-129.99 14.5,-54.3 35.45,-29.84 35.45,-70.9 0,-38.81 -8.66,-25.74 -23.21,-59.51 -55.4,-128.48 -4.47,-312.36 -3.9,-344.64l-2.24 -17.09c-6.76,-50.24 -43.65,-50.11 -84.24,-79.67 -28.94,-21.07 -43.53,-39.28 -61.92,-68.07 -106.49,-166.78 -61.5,-320.29 29.5,-463.92 37.78,-59.63 22.04,-59.55 4.18,-124.84 -23.88,-87.33 -44.47,-227.38 11.47,-307.99 57.99,-83.57 135.26,-101.7 148.32,-135.3 4.19,-10.78 13.8,-103.68 15.25,-114.73 32.31,-246.17 191.32,-145.05 191.32,-352.28 95.84,22.33 90.58,2.05 210.47,-144.12 92.84,-113.2 -31.22,-138.03 2.24,-210.4 81.11,-33.5 85.09,82.72 130,82.72 31.45,0 106.63,-27.6 144.59,-32.66 135.65,-18.06 189.62,33.61 227.07,-127.45 42.34,-182.1 145.6,-172.54 251.71,-268.25 64.09,-57.8 56.32,-152.77 113.78,-228.92 47.1,-62.43 139.47,-102.45 212,-142.52 252.12,-139.26 238.08,-275.37 414.69,-257.07 52.5,5.44 126.73,5.03 163.68,13.86 45.72,10.93 91.59,38.54 126.9,38.54 36.44,0 112.07,-94.16 138.57,-121.42 97.13,-99.93 155.71,-28.16 259.29,7.18 53.26,18.18 161.51,10.52 235.27,24.71 200.17,38.5 103.67,-20.13 205.9,-28.64 20.77,43.28 15.94,79.97 56.1,109.34 30.71,22.46 71.14,22.95 109.44,44.19 49.34,27.36 52.19,39.13 82.58,82.86 152.55,219.49 276.7,81.27 483.23,154.91 240.49,85.74 170.3,-23.18 423.33,13.88 126.78,18.57 177.65,51.82 253.52,148.29 11.69,14.86 23.1,37.23 32.86,49.87 61.01,79.09 255.8,-8.18 380.94,91.76 32.78,26.18 52.77,53.07 77.76,87.67 36.83,51.01 28.69,55.43 39.49,125.96 19.88,129.86 129.99,32.05 195.38,123.68 18.23,25.54 40.52,80.9 53.24,112.21 14.11,34.75 36.29,68.62 47.63,105.99 13.56,44.68 4.47,92.86 40.08,125.36 121.57,110.95 40.62,150.66 40.62,302.09 0,71.1 94.54,68.66 94.54,189.08 0,62.45 -44.02,87.04 -54.86,146.18 -6.71,36.59 9.9,126.54 28.54,151.94 85.83,116.93 99.21,68.57 97.07,292.89 -1.97,207.8 46.19,137.31 144.02,245.96 171.47,190.41 43.39,403.22 62.85,503.45 7.85,40.44 44.98,114.71 53.26,196.9zm-2706.17 -438.31c38.93,20.59 46.38,11.47 59.09,59.08l47.27 0c24.05,-90.06 99.58,-32.13 163.01,26.06 73.73,67.65 27.57,68.63 61.52,139.39 44.65,-11.93 34.37,-22.81 70.9,-47.27 62.6,14.58 50.75,35.41 107.57,57.87 25.66,10.14 106.28,30.3 123.38,42.07 45.55,31.38 16.41,145.06 121.61,221.09 109.64,79.22 86.06,27.92 111.34,231.37 20.52,165.17 126.97,179.16 126.97,215.73 0,92.13 -70.91,52.2 -70.91,271.79 0,97.55 59.09,119.72 59.09,153.63 0,82.17 -161.44,179.7 -176.2,308.31 -8.62,75.11 17.63,178.76 -21.45,226.71 -40.11,49.23 -102.35,14.11 -171.89,76.28 -196.52,175.68 -46.89,230.34 -241.13,255.19 -118.69,15.18 -95.5,3.37 -187.93,60.23 -25.32,15.57 -48.34,29.19 -71.36,46.81 -24.44,18.71 -52.25,66.39 -63.61,66.39 -113.81,0 -152.05,-80.39 -342.7,47.27 -232.26,-54.11 -38.88,-23.63 -224.53,-23.63 -117.82,0 -123.67,-41.64 -205.27,-66.52 -80.85,-24.65 -164.96,-3.68 -172.88,-98.93 48.07,0 79.02,-2.06 123.54,6.45 197.36,37.7 156.91,13.4 263.31,-92.29 160.19,-159.13 84.97,-145.83 128.92,-272.87 37.22,-107.6 246.95,-57.3 330.32,-355.08 9,-32.15 14.25,-80.78 24.45,-105.54 21.01,-50.96 42.68,-35.84 75.82,-65.99 35.09,-31.93 73.4,-123.01 86.7,-185.1 38.59,-180.13 -4.95,-131.08 -4.95,-229.48 0,-61.22 94.53,-21.75 94.53,-94.54 0,-70.22 4.11,-124.52 -11.96,-188.93 -16.26,-65.18 -25.71,-41.52 -47.17,-82.82 -28.51,-54.9 -1.42,-181.87 -21.37,-238.61 -35.88,-102.01 -144.03,-45.86 -144.03,-364.12zm1181.74 -614.5c0,57.31 0.68,36.63 23.63,70.9 84.04,-6.99 63.21,-88.78 141.48,-60.08 27.69,10.15 34.01,20.86 76.14,31.52 34.63,8.77 65.21,9.69 96.69,21.5 110.42,41.42 243.72,305.86 345.42,339.99 69.18,23.21 131.45,-11.16 143.33,81.2 10.76,83.7 -40.19,341.76 106.88,354 0,159.43 -100.41,88.94 -47.82,366.88 17.04,90.06 72.82,102.48 -6.06,217.38l-69.12 84.5c-39.22,59.31 5.98,55.23 -46.79,95.03 -33.83,25.51 -76.91,19.4 -120.54,174.88 -51.77,184.44 -229.64,165.83 -229.64,65.8 0,-0.1 96.77,-200.06 -22.64,-320.06 -34.8,-34.97 -78.2,-52.24 -91.77,-61.85 -21.79,-15.43 -33.76,-24.27 -33.59,-54.4 0.28,-48.16 116.17,-290.94 -211.53,-409.52 -48.17,-17.43 -61.93,-30.22 -65.99,-87.64 -8.79,-124.43 -0.12,-165.33 -73.03,-234.22 -83.2,-78.61 -169.43,-36.42 -245.94,-73.13 -17.73,-36.95 -10.28,-66.96 -32.64,-109.16 -56.46,-106.55 -206.12,-59.74 -300.23,-125.2 -81.92,-56.99 -87.47,-62.66 -222.78,-60.84 -109.18,1.47 -70.22,-5.23 -124.01,-18.73 -74.5,-18.69 -171.19,58.16 -171.19,-64.22 0,-68.26 123.4,-123.01 175.94,-143.14 97.6,-37.39 25.74,-62.45 222.8,-96.27 109.82,-18.84 98.26,-47.33 159.27,-65.26 65.67,-19.3 136.14,-3.7 193.44,-19.26 65.48,-17.78 70.48,-65.77 161.1,-45.98 64.12,14 98.93,43.46 164.29,49.39 29.92,2.71 74.75,-7.28 99.8,7.32 34.42,20.05 5.1,34.69 5.1,88.67zm-1855.32 626.32c53.16,110.8 -40.65,102.65 -95.56,211.69 -46.29,91.93 -81.93,22.48 -144.12,80.41 -30.69,28.59 -24.96,59.21 -70.27,71.54 -33.48,9.12 -96.35,-1.16 -136.63,5.17 -103.37,16.24 -131.29,115.7 -179.74,115.7l-177.67 -1.21c-47.18,12.83 -88.23,78.17 -225.47,2.56 -133.8,-73.72 -246.61,32.23 -319.97,-58.04 -191.64,-235.82 -274.17,-147.2 -327.89,-215.86 -34.4,-43.95 -23.59,-145.49 -69.15,-202.65l-156.12 -115.68c-98.4,-48.63 -89.9,-49.93 -65.98,-172.25 19.02,-97.29 0.84,-161.58 89.61,-182.26 -3.37,-40.47 21.81,-28.43 -83.13,-70.5 -126.91,-50.87 -81.21,-54.29 -53.15,-207.58 29.88,-163.23 -42.42,-159.57 62.55,-268.34 112.36,-116.41 23.92,-192.43 177.23,-342.74 126.2,-123.74 65.44,-174.4 180.12,-174.4 75.7,0 7.86,139.61 40.36,266.86 12.79,50.1 49.45,76.47 81.16,107.95 147.85,146.74 -128.38,307.52 187.91,509.31 42.22,26.94 88.97,34.87 108.15,80.92 33.71,80.91 -16.55,188.99 139.07,250.91 79,31.43 74.49,14.63 163.5,25.57 104.05,12.78 43.32,119.92 206.19,183.79 275.6,108.08 371.74,99.13 669,99.13zm2576.17 -1181.74c0,75.28 -258.52,-47.27 -342.7,-47.27 -41.16,0 -104.35,98.39 -227.43,-20.73 -87.09,-84.29 -259.38,-74.9 -365.42,-40.33 -58.41,19.03 -78.09,61.06 -128.01,61.06 -27.9,0 -138.12,-65.6 -326.46,16.24 -61.63,26.78 -74.54,81.84 -127.21,97.32 -74.42,21.87 -226.15,-38.37 -314.06,123.18 -40.76,74.91 -2.81,82.83 -107.83,104.88 -147.99,31.09 -223.78,318.63 -317.99,343.79 -90.28,-60.46 -47.26,-88.8 -47.26,-200.9 0,-94.54 -68.64,-38.6 -13.23,-190.49 13.79,-37.8 11.66,-43.79 14.23,-93.13 7.18,-138.16 -12.82,-69.58 -12.82,-165.43 71.58,-16.68 96,-58.84 111.76,-136.4 22.25,-109.46 -35.58,-153.42 73.66,-174.51 223.61,-43.19 118.64,-223.59 218.78,-289.36 52.48,-34.47 148.86,-15.76 209.67,-38.5 51.79,-19.36 38.9,-30.97 76.15,-53.84 44.07,-27.07 51.21,-5.87 96.93,-33.06 69.36,-41.24 26.02,-51.59 194.43,-53.73 209.59,-2.68 60.25,-173.42 311.22,-16.88 205.66,128.28 326.16,-92.08 394.27,66.61l62.65 90.97c108.96,99.48 197.07,-48.54 261.27,116.89 77.96,200.88 210.86,138.74 210.86,202.74 0,82.83 -33.24,42.27 31.43,169.47 20.48,40.29 63.11,112.22 63.11,161.41zm-2587.99 -579.05c0,146.88 80.17,34.24 -62.85,208.96 -153.32,187.3 -67.14,260.29 -67.14,311.01 0,106.03 -70.91,132.9 -70.91,200.89 0,91.13 61.1,126.89 56.37,198.44 -5.82,88.22 -73.81,109.17 -40.98,186.68 14.84,35.06 32.67,54.1 55.42,75.85 67.66,64.67 75.88,109.58 109.76,150.22 35.76,42.89 116.79,87.14 -15.12,156.94 -50.33,-26.63 -89.04,-61.14 -141.73,-82.81 -53.29,-21.92 -119.43,-25.85 -162.82,-61.71 -48.51,-40.08 -48.52,-88 -122.52,-102.01 -78.36,-14.83 -109.66,-10.29 -146.33,-78.19 -39.51,-73.14 -12.8,-78.8 -79.12,-145.42 -40.99,-41.18 -82.83,-57.35 -108.03,-116.49 -30.89,-72.46 -3.96,-115.24 -47.51,-177.02 -40.12,-56.92 -90.06,-56.43 -90.06,-146.29 0,-168.35 73.22,-122.58 116.13,-191.12 18.54,-29.62 13.86,13.28 13.86,-33.41l0 -153.62c0,-64.52 -23.63,-65.47 -23.63,-129.99 0,-23.7 59.36,-89.26 74.14,-150.39 20.51,-84.87 -8.17,-116.14 52.48,-183.86 40.8,-45.56 84.9,-60.93 123.51,-112.84 31.18,-41.92 57.57,-109.74 90.32,-146.02 69.58,-77.08 287.6,-83.57 323,-149.7 22.49,-42.01 -6.17,-51 35.72,-82.45 28.24,-21.21 600.73,-91.21 600.73,21.68 0,142.32 -124.95,196.74 -141.13,319.74 -8.56,65.03 -7.65,71.68 -59.1,94.53 -98.09,43.58 -272.46,95.8 -272.46,318.4z"/>
 </g>
</svg>
