<?xml version="1.0" encoding="UTF-8"?>
<!DOCTYPE svg PUBLIC "-//W3C//DTD SVG 1.1//EN" "http://www.w3.org/Graphics/SVG/1.1/DTD/svg11.dtd">
<!-- Creator: CorelDRAW 2017 -->
<svg xmlns="http://www.w3.org/2000/svg" xml:space="preserve" width="210mm" height="297mm" version="1.1" style="shape-rendering:geometricPrecision; text-rendering:geometricPrecision; image-rendering:optimizeQuality; fill-rule:evenodd; clip-rule:evenodd"
viewBox="0 0 21000 29700"
 xmlns:xlink="http://www.w3.org/1999/xlink">
 <defs>
  <style type="text/css">
   <![CDATA[
    .fil0 {fill:#0070BA}
    .fil1 {fill:#29A8E0}
    .fil3 {fill:#FEFEFE}
    .fil2 {fill:#6E5EFF;fill-rule:nonzero}
   ]]>
  </style>
 </defs>
 <g id="Слой_x0020_1">
  <metadata id="CorelCorpID_0Corel-Layer"/>
  <polygon class="fil0" points="6138.16,21145.4 5218.57,10345.4 15781.44,10345.4 14836.98,21145.4 10503.6,22354.6 "/>
  <polygon class="fil1" points="10525,21425 10525,11200 14825,11225 14025,20425 "/>
  <path class="fil2" d="M9871.55 9062.75c-120.17,43.16 -258.64,64.56 -415.74,64.56 -154.36,0 -287.65,-29.35 -399.52,-88.39 -111.88,-59.05 -197.52,-142.95 -256.56,-252.08 -59.05,-108.77 -88.4,-234.45 -88.4,-376.72 0,-152.96 33.15,-289.37 99.1,-408.49 65.95,-119.48 159.53,-211.67 280.38,-276.59 120.52,-65.26 259.33,-97.72 416.44,-97.72 125.69,0 246.9,15.19 364.3,45.58l0 404c-40.4,-24.17 -88.75,-43.16 -144.68,-56.63 -55.95,-13.46 -112.58,-20.02 -169.89,-20.02 -118.79,0 -212.36,34.18 -281.08,102.21 -68.37,68.02 -102.56,160.22 -102.56,276.93 0,116.02 34.19,207.53 102.56,274.51 68.72,67 160.22,100.49 274.86,100.49 106.01,0 212.7,-26.93 320.79,-80.81l0 389.17zm1232.38 -399.52c0,96.33 -25.9,180.24 -77.34,251.72 -51.45,71.48 -123.97,124.66 -216.85,159.88 -92.89,34.87 -204.77,52.48 -335.64,52.48 -151.59,0 -290.4,-25.54 -416.43,-77l0 -397.44c60.77,44.54 127.76,80.8 201.31,108.08 73.54,27.28 141.92,41.09 205.45,41.09 47.65,0 84.94,-8.64 111.19,-25.9 26.25,-17.26 39.37,-42.12 39.37,-75.28 0,-23.47 -6.56,-44.54 -19.68,-62.15 -13.13,-17.95 -33.16,-34.53 -59.74,-50.07 -26.6,-15.54 -75.97,-36.95 -148.49,-63.88 -233.42,-89.78 -350.13,-234.8 -350.13,-435.08 0,-140.19 53.17,-252.41 159.87,-336.32 106.35,-83.91 249.31,-126.04 428.87,-126.04 50.41,0 97.03,2.07 139.5,6.22 42.48,3.79 81.14,8.97 116.02,14.84 34.53,6.22 83.22,17.61 146.07,34.53l0 369.13c-122.24,-66.3 -242.06,-99.44 -360.15,-99.44 -48.69,0 -87.71,8.97 -117.41,27.28 -29.69,18.3 -44.54,43.16 -44.54,74.93 0,30.03 12.08,55.24 35.91,75.27 23.83,19.68 73.9,45.58 150.21,77.35 150.2,60.43 256.56,127.07 319.06,199.24 62.49,71.82 93.57,157.46 93.57,256.56zm1184.74 0c0,96.33 -25.9,180.24 -77.35,251.72 -51.45,71.48 -123.96,124.66 -216.85,159.88 -92.88,34.87 -204.76,52.48 -335.63,52.48 -151.59,0 -290.4,-25.54 -416.44,-77l0 -397.44c60.77,44.54 127.76,80.8 201.31,108.08 73.55,27.28 141.92,41.09 205.46,41.09 47.65,0 84.94,-8.64 111.18,-25.9 26.25,-17.26 39.37,-42.12 39.37,-75.28 0,-23.47 -6.56,-44.54 -19.68,-62.15 -13.13,-17.95 -33.15,-34.53 -59.74,-50.07 -26.59,-15.54 -75.97,-36.95 -148.48,-63.88 -233.43,-89.78 -350.14,-234.8 -350.14,-435.08 0,-140.19 53.18,-252.41 159.88,-336.32 106.35,-83.91 249.31,-126.04 428.86,-126.04 50.41,0 97.03,2.07 139.5,6.22 42.48,3.79 81.15,8.97 116.03,14.84 34.53,6.22 83.21,17.61 146.06,34.53l0 369.13c-122.23,-66.3 -242.05,-99.44 -360.15,-99.44 -48.69,0 -87.71,8.97 -117.41,27.28 -29.69,18.3 -44.54,43.16 -44.54,74.93 0,30.03 12.09,55.24 35.91,75.27 23.83,19.68 73.9,45.58 150.21,77.35 150.2,60.43 256.56,127.07 319.06,199.24 62.5,71.82 93.58,157.46 93.58,256.56z"/>
  <polygon class="fil3" points="13223.69,19250 10523.69,20026.69 7773.69,19275 7592.56,17200 8955.97,17199.98 9048.69,18250 10523.69,18647.31 11955.22,18237.44 12105.04,16525.02 7533.75,16525.02 7417.83,15200.02 8781,15200.02 8962.88,15200.02 12222.27,15200.02 12338.43,13849.96 8662.88,13849.98 7299.71,13849.98 7183.79,12525 13816.22,12525 "/>
 </g>
</svg>
