<?xml version="1.0" encoding="UTF-8"?>
<!DOCTYPE svg PUBLIC "-//W3C//DTD SVG 1.1//EN" "http://www.w3.org/Graphics/SVG/1.1/DTD/svg11.dtd">
<!-- Creator: CorelDRAW X7 -->
<svg xmlns="http://www.w3.org/2000/svg" xml:space="preserve" width="866px" height="866px" version="1.1" style="shape-rendering:geometricPrecision; text-rendering:geometricPrecision; image-rendering:optimizeQuality; fill-rule:evenodd; clip-rule:evenodd"
viewBox="0 0 866 866"
 xmlns:xlink="http://www.w3.org/1999/xlink">
 <defs>
  <style type="text/css">
   <![CDATA[
    .fil1 {fill:black}
    .fil0 {fill:white}
   ]]>
  </style>
 </defs>
 <g id="Слой_x0020_1">
  <metadata id="CorelCorpID_0Corel-Layer"/>
  <g id="_298748804480">
   <path class="fil0" d="M433 39c-217,0 -394,177 -394,394 0,217 177,394 394,394 217,0 394,-177 394,-394 0,-217 -177,-394 -394,-394z"/>
   <path class="fil1" d="M610 258l-177 140 -183 -140 360 0zm19 350l-398 0 0 -291 183 139c5,4 13,6 18,6 6,0 12,-2 17,-6l180 -143 0 295z"/>
  </g>
  <g id="_298748804224">
  </g>
  <g id="_298748804000">
  </g>
  <g id="_298748804768">
  </g>
  <g id="_298748797824">
  </g>
  <g id="_298748799104">
  </g>
  <g id="_298748797568">
  </g>
  <g id="_298748799168">
  </g>
  <g id="_298748798304">
  </g>
  <g id="_298748797312">
  </g>
  <g id="_298748828576">
  </g>
  <g id="_298748827872">
  </g>
  <g id="_298748828160">
  </g>
  <g id="_298748828992">
  </g>
  <g id="_298748827232">
  </g>
  <g id="_298748827680">
  </g>
 </g>
</svg>
