<?xml version="1.0" encoding="UTF-8"?>
<!DOCTYPE svg PUBLIC "-//W3C//DTD SVG 1.1//EN" "http://www.w3.org/Graphics/SVG/1.1/DTD/svg11.dtd">
<!-- Creator: CorelDRAW 2017 -->
<svg xmlns="http://www.w3.org/2000/svg" xml:space="preserve" width="210mm" height="297mm" version="1.1" style="shape-rendering:geometricPrecision; text-rendering:geometricPrecision; image-rendering:optimizeQuality; fill-rule:evenodd; clip-rule:evenodd"
viewBox="0 0 21000 29700"
 xmlns:xlink="http://www.w3.org/1999/xlink">
 <defs>
  <style type="text/css">
   <![CDATA[
    .fil0 {fill:#E44D26}
    .fil1 {fill:#FC7135}
    .fil2 {fill:#FEFEFE}
    .fil3 {fill:#6E5EFF;fill-rule:nonzero}
   ]]>
  </style>
 </defs>
 <g id="Слой_x0020_1">
  <metadata id="CorelCorpID_0Corel-Layer"/>
  <polygon class="fil0" points="6138.16,21145.4 5218.57,10345.4 15781.44,10345.4 14836.98,21145.4 10503.6,22354.6 "/>
  <polygon class="fil1" points="10525,21425 10525,11200 14825,11225 14025,20425 "/>
  <polygon class="fil2" points="7533.75,16525.02 7183.79,12525 13816.22,12525 13700.3,13850 8662.88,13849.98 8781,15200.02 13585.66,15200.02 13223.69,19250 10523.69,20026.69 7773.69,19275 7592.56,17200 8955.97,17199.98 9048.69,18250 10523.69,18647.31 11955.22,18237.44 12105.04,16525.02 "/>
  <path class="fil3" d="M8382.96 9127.32l0 -559.29 -518.57 0 0 559.29 -452.15 0 0 -1500 452.15 0 0 555 518.57 0 0 -555 452.14 0 0 1500 -452.14 0zm1506.78 -1146.43l0 1146.43 -454.28 0 0 -1146.43 -420.01 0 0 -353.57 1298.58 0 0 353.57 -424.29 0zm1978.21 1146.43l0 -822.14c0,-77.51 2.5,-162.5 7.15,-255.36l3.21 -68.93 -12.5 0c-22.14,117.86 -39.29,199.28 -51.07,244.64l-221.07 901.79 -424.64 0 -231.08 -891.07c-6.43,-22.5 -22.86,-107.51 -49.29,-255.36l-12.49 0c9.64,234.29 14.64,380.71 14.64,439.28l0 707.15 -396.43 0 0 -1500 676.79 0 206.07 814.28c5,16.79 11.43,50.72 19.64,102.15 7.86,51.06 12.86,90.71 15,118.57l6.43 0c7.5,-63.57 19.64,-138.22 36.43,-224.64l192.5 -810.36 666.42 0 0 1500 -445.71 0zm741.07 0l0 -1500 452.14 0 0 1146.42 516.43 0 0 353.58 -968.57 0z"/>
 </g>
</svg>
