<?xml version="1.0" encoding="UTF-8"?>
<!DOCTYPE svg PUBLIC "-//W3C//DTD SVG 1.1//EN" "http://www.w3.org/Graphics/SVG/1.1/DTD/svg11.dtd">
<!-- Creator: CorelDRAW X7 -->
<svg xmlns="http://www.w3.org/2000/svg" xml:space="preserve" width="866px" height="866px" version="1.1" style="shape-rendering:geometricPrecision; text-rendering:geometricPrecision; image-rendering:optimizeQuality; fill-rule:evenodd; clip-rule:evenodd"
viewBox="0 0 866 866"
 xmlns:xlink="http://www.w3.org/1999/xlink">
 <defs>
  <style type="text/css">
   <![CDATA[
    .fil1 {fill:black}
    .fil2 {fill:#FEFEFE}
    .fil0 {fill:white}
   ]]>
  </style>
 </defs>
 <g id="Слой_x0020_1">
  <metadata id="CorelCorpID_0Corel-Layer"/>
  <g id="_298748808928">
   <path class="fil0" d="M433 39c-217,0 -394,177 -394,394 0,217 177,394 394,394 217,0 394,-177 394,-394 0,-217 -177,-394 -394,-394z"/>
   <line class="fil1" x1="658" y1="526" x2="433" y2= "433" />
   <path class="fil1" d="M658 526c-1,24 -5,41 -11,55 -12,30 -36,54 -66,66 -14,6 -31,10 -55,11 -24,1 -32,1 -93,1 -61,0 -69,0 -93,-1 -24,-1 -41,-5 -55,-11 -15,-6 -29,-14 -40,-26 -12,-11 -20,-25 -26,-40 -6,-14 -10,-31 -11,-55 -1,-24 -1,-32 -1,-93 0,-61 0,-69 1,-93 1,-24 5,-41 11,-55 6,-15 14,-29 26,-40 11,-12 25,-20 40,-26 14,-6 31,-10 55,-11 24,-1 32,-1 93,-1 61,0 69,0 93,1 24,1 41,5 55,11 15,6 29,14 40,26 12,11 20,25 26,40 6,14 10,31 11,55 1,24 1,32 1,93 0,61 0,69 -1,93z"/>
   <path class="fil2" d="M508 433c0,42 -33,75 -75,75 -42,0 -75,-33 -75,-75 0,-42 33,-75 75,-75 42,0 75,33 75,75zm0 0z"/>
   <path class="fil0" d="M609 300c-3,-10 -9,-19 -17,-26 -7,-8 -16,-14 -26,-17 -8,-3 -20,-7 -42,-8 -23,-1 -31,-1 -91,-1 -60,0 -68,0 -91,1 -22,1 -34,5 -42,8 -10,3 -19,9 -26,17 -8,7 -14,16 -17,26 -3,8 -7,20 -8,42 -1,23 -1,31 -1,91 0,60 0,68 1,91 1,22 5,34 8,42 3,10 9,19 17,26 7,8 16,14 26,17 8,3 20,7 42,8 23,1 31,1 91,1 60,0 68,0 91,-1 22,-1 34,-5 42,-8 20,-7 36,-23 43,-43 3,-8 7,-20 8,-42 1,-23 1,-31 1,-91 0,-60 0,-68 -1,-91 -1,-22 -5,-34 -8,-42l0 0zm-176 249c-64,0 -116,-52 -116,-116 0,-64 52,-116 116,-116 64,0 116,52 116,116 0,64 -52,116 -116,116zm121 -210c-15,0 -27,-12 -27,-27 0,-15 12,-27 27,-27 15,0 27,12 27,27 0,15 -12,27 -27,27zm0 0z"/>
  </g>
 </g>
</svg>
