<?xml version="1.0" encoding="UTF-8"?>
<!DOCTYPE svg PUBLIC "-//W3C//DTD SVG 1.1//EN" "http://www.w3.org/Graphics/SVG/1.1/DTD/svg11.dtd">
<!-- Creator: CorelDRAW 2017 -->
<svg xmlns="http://www.w3.org/2000/svg" xml:space="preserve" width="210mm" height="297mm" version="1.1" style="shape-rendering:geometricPrecision; text-rendering:geometricPrecision; image-rendering:optimizeQuality; fill-rule:evenodd; clip-rule:evenodd"
viewBox="0 0 21000 29700"
 xmlns:xlink="http://www.w3.org/1999/xlink">
 <defs>
  <style type="text/css">
   <![CDATA[
    .fil0 {fill:#63A814}
    .fil1 {fill:#8ACF17}
    .fil3 {fill:#FEFEFE}
    .fil2 {fill:#6E5EFF;fill-rule:nonzero}
   ]]>
  </style>
 </defs>
 <g id="Слой_x0020_1">
  <metadata id="CorelCorpID_0Corel-Layer"/>
  <polygon class="fil0" points="6138.16,21145.4 5218.57,10345.4 15781.44,10345.4 14836.98,21145.4 10503.6,22354.6 "/>
  <polygon class="fil1" points="10525,21425 10525,11200 14825,11225 14025,20425 "/>
  <path class="fil2" d="M10235.77 8483.33c0,429.21 -208.57,643.98 -626.03,643.98 -33.5,0 -74.25,-4.14 -121.21,-12.08 -47.3,-8.29 -94.95,-20.38 -143.64,-36.25l0 -403.32c34.53,23.48 72.86,42.47 114.98,56.98 42.13,14.5 77.01,21.75 104.63,21.75 78.38,0 137.09,-24.18 175.76,-72.17 39.02,-48.34 58.35,-122.93 58.35,-224.1l0 -805.94 437.16 0 0 831.15zm1276.58 179.9c0,96.33 -25.9,180.24 -77.34,251.72 -51.46,71.48 -123.97,124.66 -216.86,159.88 -92.88,34.87 -204.76,52.48 -335.63,52.48 -151.59,0 -290.4,-25.54 -416.44,-77l0 -397.44c60.77,44.54 127.77,80.8 201.31,108.08 73.55,27.28 141.93,41.09 205.46,41.09 47.65,0 84.94,-8.64 111.18,-25.9 26.25,-17.26 39.37,-42.12 39.37,-75.28 0,-23.47 -6.56,-44.54 -19.68,-62.15 -13.12,-17.95 -33.15,-34.53 -59.74,-50.07 -26.59,-15.54 -75.96,-36.95 -148.48,-63.88 -233.42,-89.78 -350.14,-234.8 -350.14,-435.08 0,-140.19 53.18,-252.41 159.88,-336.32 106.35,-83.91 249.31,-126.04 428.86,-126.04 50.42,0 97.04,2.07 139.51,6.22 42.47,3.79 81.14,8.97 116.02,14.84 34.53,6.22 83.22,17.61 146.06,34.53l0 369.13c-122.23,-66.3 -242.05,-99.44 -360.15,-99.44 -48.68,0 -87.7,8.97 -117.4,27.28 -29.7,18.3 -44.54,43.16 -44.54,74.93 0,30.03 12.08,55.24 35.91,75.27 23.82,19.68 73.89,45.58 150.21,77.35 150.2,60.43 256.55,127.07 319.06,199.24 62.49,71.82 93.57,157.46 93.57,256.56z"/>
  <path class="fil3" d="M13223.69 19250l-2700 776.69 -2750 -751.69 -181.13 -2075 1363.41 -0.02 92.72 1050.02 1475 397.31 1431.53 -409.87c345.47,-3948.65 -8.12,160.64 383.21,-4387.48l-3675.55 0.02 -1363.17 0 -115.92 -1324.98 6632.43 0 -592.53 6725z"/>
 </g>
</svg>
