<?xml version="1.0" encoding="UTF-8"?>
<!DOCTYPE svg PUBLIC "-//W3C//DTD SVG 1.1//EN" "http://www.w3.org/Graphics/SVG/1.1/DTD/svg11.dtd">
<!-- Creator: CorelDRAW 2017 -->
<svg xmlns="http://www.w3.org/2000/svg" xml:space="preserve" width="130mm" height="170mm" version="1.1" style="shape-rendering:geometricPrecision; text-rendering:geometricPrecision; image-rendering:optimizeQuality; fill-rule:evenodd; clip-rule:evenodd"
viewBox="0 0 13000 17000"
 xmlns:xlink="http://www.w3.org/1999/xlink">
 <defs>
  <style type="text/css">
   <![CDATA[
    .fil0 {fill:#53C1DE}
    .fil1 {fill:#EBECEC;fill-rule:nonzero}
   ]]>
  </style>
 </defs>
 <g id="Layer_x0020_1">
  <metadata id="CorelCorpID_0Corel-Layer"/>
  <g id="_769409968">
   <path class="fil0" d="M10713.6 7965.72c-134.86,-46.43 -274.61,-90.35 -418.48,-131.89 23.64,-96.52 45.34,-191.79 64.65,-285.42 316.78,-1537.71 109.66,-2776.51 -597.61,-3184.38 -678.18,-391.08 -1787.3,16.7 -2907.46,991.52 -107.71,93.74 -215.74,192.99 -323.7,297.01 -71.93,-68.82 -143.78,-135.34 -215.4,-198.94 -1173.94,-1042.36 -2350.64,-1481.63 -3057.22,-1072.59 -677.55,392.24 -878.19,1556.83 -593.03,3014.12 27.53,140.76 59.71,284.51 96.12,430.66 -166.53,47.27 -327.31,97.68 -481.15,151.28 -1376.32,479.87 -2255.31,1231.89 -2255.31,2011.94 0,805.67 943.59,1613.75 2377.14,2103.75 113.14,38.67 230.52,75.22 351.51,109.92 -39.27,158.09 -73.43,312.98 -102.09,464.06 -271.9,1432.01 -59.58,2569.07 616.16,2958.82 697.97,402.5 1869.34,-11.22 3009.97,-1008.26 90.15,-78.83 180.61,-162.41 271.26,-250.02 117.47,113.13 234.78,220.21 351.44,320.62 1104.84,950.75 2196.04,1334.68 2871.15,943.84 697.27,-403.65 923.87,-1625.15 629.69,-3111.28 -22.46,-113.48 -48.62,-229.45 -77.98,-347.46 82.26,-24.31 163.02,-49.42 241.76,-75.52 1490.33,-493.78 2459.97,-1292.03 2459.97,-2108.47 0,-782.86 -907.34,-1539.97 -2311.39,-2023.31l0 0 0 0zm-323.23 3604.62c-71.09,23.53 -144.04,46.27 -218.37,68.35 -164.52,-520.86 -386.55,-1074.72 -658.3,-1646.94 259.31,-558.58 472.78,-1105.36 632.69,-1622.84 132.99,38.49 262.07,79.09 386.45,121.9 1202.99,414.15 1936.79,1026.45 1936.79,1498.22 0,502.55 -792.49,1154.94 -2079.26,1581.31l0 0 0 0zm-533.95 1058c130.1,657.15 148.69,1251.28 62.52,1715.75 -77.44,417.35 -233.15,695.62 -425.66,807.06 -409.69,237.13 -1285.82,-71.12 -2230.69,-884.21 -108.32,-93.2 -217.43,-192.72 -326.87,-298.05 366.31,-400.63 732.41,-866.36 1089.7,-1383.61 628.44,-55.77 1222.21,-146.93 1760.63,-271.4 26.53,106.97 50.08,211.89 70.37,314.46l0 0 0 0zm-5399.42 2481.83c-400.28,141.36 -719.08,145.4 -911.78,34.29 -410.07,-236.52 -580.53,-1149.48 -348.01,-2374.13 26.64,-140.25 58.34,-284.31 94.87,-431.59 532.56,117.77 1121.95,202.51 1751.9,253.57 359.72,506.15 736.37,971.36 1115.95,1378.73 -82.94,80.06 -165.55,156.28 -247.68,228.1 -504.37,440.9 -1009.81,753.7 -1455.25,911.03l0 0 0 0zm-1875.23 -3542.89c-633.89,-216.67 -1157.4,-498.27 -1516.23,-805.54 -322.41,-276.12 -485.21,-550.26 -485.21,-772.71 0,-473.34 705.75,-1077.13 1882.8,-1487.52 142.82,-49.8 292.33,-96.72 447.48,-140.8 162.68,529.16 376.06,1082.42 633.58,1641.85 -260.85,567.76 -477.27,1129.82 -641.53,1665.18 -110.62,-31.79 -217.78,-65.26 -320.89,-100.46l0 0 0 0zm628.6 -4278.79c-244.33,-1248.56 -82.07,-2190.46 326.23,-2426.81 434.92,-251.78 1396.63,107.2 2410.23,1007.22 64.8,57.54 129.83,117.75 195.07,180.05 -377.71,405.56 -750.92,867.29 -1107.42,1370.45 -611.4,56.67 -1196.67,147.71 -1734.74,269.59 -33.84,-136.08 -63.8,-269.77 -89.37,-400.5l0 0 0 0zm5607.58 1384.67c-128.62,-222.18 -260.68,-439.11 -395.32,-650.12 414.78,52.42 812.19,122.03 1185.4,207.2 -112.05,359.1 -251.7,734.52 -416.09,1119.41 -117.92,-223.87 -242.65,-449.6 -373.99,-676.49l0 0 0 0zm-2286.77 -2227.32c256.17,277.51 512.7,587.35 765,923.52 -254.26,-12 -511.66,-18.24 -771.2,-18.24 -257.07,0 -512.59,6.11 -765.27,17.9 252.57,-333.05 511.31,-642.48 771.47,-923.18l0 0 0 0zm-2301.39 2231.17c-128.49,222.8 -250.92,447.32 -366.97,672.22 -161.74,-383.53 -300.08,-760.7 -413.11,-1124.86 370.93,-83 766.44,-150.89 1178.6,-202.31 -136.54,212.95 -269.68,431.48 -398.52,654.89l0 0.06 0 0zm410.39 3318.64c-425.83,-47.49 -827.31,-111.88 -1198.12,-192.6 114.81,-370.66 256.22,-755.87 421.37,-1147.69 116.38,224.78 239.28,449.36 368.55,672.66l0.03 0c131.68,227.49 268.13,450.33 408.17,667.63l0 0 0 0zm1906.37 1575.76c-263.22,-283.99 -525.77,-598.13 -782.16,-936.05 248.91,9.76 502.67,14.77 760.59,14.77 264.98,0 526.92,-5.98 784.75,-17.47 -253.16,344.01 -508.77,658.63 -763.18,938.75l0 0 0 0zm2650.7 -2936.01c173.76,396.04 320.23,779.23 436.52,1143.6 -376.92,85.98 -783.88,155.24 -1212.66,206.71 134.95,-213.86 268.18,-434.53 399.06,-661.5 132.45,-229.65 258.18,-459.64 377.08,-688.81l0 0 0 0zm-858.12 411.37c-203.23,352.33 -411.85,688.7 -623.64,1006.2 -385.78,27.59 -784.32,41.79 -1190.51,41.79 -404.54,0 -798.06,-12.57 -1176.99,-37.16 -220.34,-321.67 -433.5,-659.02 -635.4,-1007.81l0.04 0c-201.4,-347.83 -386.75,-698.62 -554.69,-1047.43 167.89,-349.59 352.77,-700.77 553,-1047.97l-0.05 0.07c200.75,-348.14 412.05,-683.86 630.34,-1003.51 386.6,-29.22 783.06,-44.49 1183.73,-44.49l0.02 0c402.47,0 799.45,15.38 1185.94,44.86 214.97,317.3 424.83,651.93 626.38,1000.11 203.84,352.12 391.08,700.95 560.41,1043.04 -168.83,348 -355.66,700.36 -558.58,1052.3l0 0 0 0zm1145.63 -6201.61c435.33,251.04 604.61,1263.5 331.11,2591.16 -17.44,84.71 -37.1,171 -58.43,258.43 -539.34,-124.44 -1125.02,-217.03 -1738.2,-274.57 -357.2,-508.68 -727.39,-971.12 -1098.94,-1371.49 99.9,-96.11 199.66,-187.75 298.99,-274.2 959.75,-835.24 1856.77,-1165.01 2265.47,-929.33l0 0 0 0z"/>
   <path class="fil0" d="M6524.99 8828.2c641.12,0 1160.87,519.72 1160.87,1160.84 0,641.13 -519.75,1160.85 -1160.87,1160.85 -641.1,0 -1160.85,-519.72 -1160.85,-1160.85 0,-641.12 519.75,-1160.84 1160.85,-1160.84z"/>
  </g>
  <path class="fil1" d="M3998.24 2752.46l-108.43 -312.5c-20.72,-61.47 -47.99,-109.46 -81.14,-144.68 -33.5,-34.88 -69.76,-52.49 -108.77,-52.49l-17.27 0 0 509.67 -437.15 0 0 -1450.28 580.11 0c203.03,0 352.9,33.15 449.58,99.79 96.68,66.3 145.03,165.75 145.03,298.7 0,99.79 -27.97,183.35 -84.25,250.69 -56.29,67.67 -140.2,116.36 -251.39,146.74l0 4.15c61.46,18.64 112.58,49.38 153.32,91.85 41.09,42.47 77.69,105.66 109.81,189.23l142.95 369.13 -492.4 0zm-42.13 -989.99c0,-48.69 -14.84,-87.02 -44.54,-115.33 -29.35,-28.31 -75.97,-42.47 -139.16,-42.47l-89.78 0 0 331.49 78.73 0c58.7,0 105.66,-16.57 141.23,-49.38 35.57,-33.15 53.52,-74.59 53.52,-124.31zm702.69 989.99l0 -1450.28 902.97 0 0 341.85 -465.81 0 0 211.33 437.15 0 0 341.85 -437.15 0 0 213.4 499.31 0 0 341.85 -936.47 0zm2052.84 0l-63.89 -267.27 -433.01 0 -68.71 267.27 -472.38 0 499.65 -1450.28 542.48 0 470.3 1450.28 -474.44 0zm-275.9 -1135.36l-10.02 0c-1.37,16.23 -5.87,42.81 -14.16,79.76 -7.93,37.3 -49.03,196.48 -122.58,477.56l277.63 0 -101.18 -394.34c-14.15,-58.01 -24.17,-112.56 -29.69,-162.98zm1999.65 1095.65c-120.16,43.16 -258.63,64.57 -415.74,64.57 -154.35,0 -287.64,-29.35 -399.52,-88.4 -111.88,-59.04 -197.52,-142.95 -256.56,-252.07 -59.05,-108.77 -88.4,-234.46 -88.4,-376.72 0,-152.98 33.15,-289.37 99.11,-408.5 65.94,-119.48 159.53,-211.67 280.38,-276.59 120.51,-65.26 259.33,-97.72 416.43,-97.72 125.7,0 246.9,15.2 364.3,45.58l0 404.01c-40.4,-24.17 -88.74,-43.17 -144.68,-56.64 -55.94,-13.46 -112.57,-20.02 -169.89,-20.02 -118.78,0 -212.36,34.18 -281.08,102.21 -68.37,68.02 -102.55,160.22 -102.55,276.93 0,116.02 34.18,207.53 102.55,274.52 68.72,66.99 160.23,100.48 274.86,100.48 106.02,0 212.71,-26.93 320.79,-80.8l0 389.16zm958.91 -1068.72l0 1108.43 -439.22 0 0 -1108.43 -406.08 0 0 -341.85 1255.52 0 0 341.85 -410.22 0z"/>
 </g>
</svg>
