<?xml version="1.0" encoding="UTF-8"?>
<!DOCTYPE svg PUBLIC "-//W3C//DTD SVG 1.1//EN" "http://www.w3.org/Graphics/SVG/1.1/DTD/svg11.dtd">
<!-- Creator: CorelDRAW 2017 -->
<svg xmlns="http://www.w3.org/2000/svg" xml:space="preserve" width="130mm" height="170mm" version="1.1" style="shape-rendering:geometricPrecision; text-rendering:geometricPrecision; image-rendering:optimizeQuality; fill-rule:evenodd; clip-rule:evenodd"
viewBox="0 0 13000 17000"
 xmlns:xlink="http://www.w3.org/1999/xlink">
 <defs>
  <style type="text/css">
   <![CDATA[
    .fil0 {fill:#764ABC}
    .fil1 {fill:#EBECEC;fill-rule:nonzero}
   ]]>
  </style>
 </defs>
 <g id="Слой_x0020_1">
  <metadata id="CorelCorpID_0Corel-Layer"/>
  <path class="fil0" d="M8814.73 12060.12c442.85,-45.81 778.79,-427.59 763.53,-885.72 -15.27,-458.13 -397.04,-824.63 -855.16,-824.63l-30.54 0c-473.38,15.27 -839.87,412.32 -824.6,885.72 15.27,229.06 106.89,427.59 244.33,565.02 -519.2,1023.16 -1313.27,1771.45 -2504.37,2397.55 -809.33,427.59 -1649.21,580.31 -2489.08,473.41 -687.17,-91.63 -1221.64,-397.05 -1557.58,-900.99 -488.66,-748.28 -534.48,-1557.64 -122.18,-2367.02 290.15,-580.29 748.26,-1007.87 1038.4,-1221.68 -61.08,-198.53 -152.71,-534.49 -198.51,-778.82 -2214.23,1603.46 -1985.17,3771.94 -1313.27,4795.1 503.93,763.57 1527.05,1236.97 2657.07,1236.97 305.41,0 610.81,-30.54 916.22,-106.9 1954.63,-381.77 3435.86,-1542.38 4275.74,-3268.01zm2687.6 -1893.61c-1160.56,-1359.12 -2870.84,-2107.4 -4825.47,-2107.4l-244.32 0c-137.45,-274.89 -427.57,-458.13 -748.26,-458.13l-30.54 0c-473.39,15.27 -839.87,412.32 -824.6,885.72 15.27,458.13 397.02,824.63 855.14,824.63l30.54 0c335.96,-15.27 626.09,-229.07 748.26,-519.21l274.87 0c1160.56,0 2260.03,335.95 3252.61,992.62 763.53,503.94 1313.26,1160.59 1618.67,1954.7 259.6,641.37 244.33,1267.49 -30.54,1801.98 -427.57,809.36 -1145.29,1252.22 -2092.06,1252.22 -610.81,0 -1191.1,-183.26 -1496.51,-320.69 -167.97,152.7 -473.39,397.05 -687.17,549.75 656.63,305.43 1328.54,473.4 1969.9,473.4 1465.97,0 2550.17,-809.36 2962.46,-1618.72 442.85,-885.72 412.3,-2412.83 -732.98,-3710.87zm-7757.41 2153.21c15.27,458.13 397.05,824.65 855.16,824.65l30.54 0c473.39,-15.27 839.87,-412.33 824.6,-885.73 -15.27,-458.13 -397.03,-824.64 -855.14,-824.64l-30.54 0c-30.55,0 -76.36,0 -106.9,15.28 -626.09,-1038.42 -885.69,-2168.49 -794.06,-3390.17 61.07,-916.26 366.49,-1710.37 900.96,-2367.01 442.84,-565.04 1297.98,-839.91 1878.27,-855.18 1618.67,-30.54 2305.84,1985.23 2351.65,2794.6 198.52,45.82 534.47,152.7 763.53,229.06 -183.26,-2473.9 -1710.3,-3756.68 -3176.27,-3756.68 -1374.34,0 -2641.8,992.62 -3145.73,2458.65 -702.44,1954.69 -244.33,3833.04 610.83,5314.31 -76.35,106.9 -122.17,274.89 -106.9,442.86z"/>
  <path class="fil1" d="M3672.87 2782.01l-112.49 -324.23c-21.5,-63.77 -49.8,-113.56 -84.19,-150.11 -34.76,-36.18 -72.38,-54.45 -112.85,-54.45l-17.92 0 0 528.79 -453.55 0 0 -1504.69 601.87 0c210.66,0 366.14,34.39 466.45,103.53 100.31,68.79 150.47,171.97 150.47,309.9 0,103.54 -29.02,190.24 -87.41,260.1 -58.4,70.21 -145.46,120.73 -260.82,152.25l0 4.3c63.77,19.35 116.8,51.24 159.07,95.3 42.64,44.07 80.61,109.63 113.93,196.33l148.32 382.98 -510.88 0zm-43.71 -1027.13c0,-50.52 -15.4,-90.29 -46.21,-119.66 -30.45,-29.37 -78.82,-44.07 -144.38,-44.07l-93.15 0 0 343.93 81.68 0c60.91,0 109.63,-17.19 146.53,-51.23 36.91,-34.39 55.53,-77.39 55.53,-128.97zm729.06 1027.13l0 -1504.69 936.84 0 0 354.68 -483.29 0 0 219.25 453.56 0 0 354.68 -453.56 0 0 221.4 518.04 0 0 354.68 -971.59 0zm2604.9 -771.34c0,152.62 -31.89,287.33 -96.02,404.48 -64.13,117.15 -155.48,207.79 -274.43,271.2 -118.93,63.77 -256.15,95.66 -411.27,95.66l-636.99 0 0 -1504.69 623.37 0c530.22,0 795.34,244.33 795.34,733.35zm-481.5 4.3c0,-73.44 -14.7,-139.72 -44.43,-198.47 -29.73,-58.76 -72.37,-103.9 -127.54,-136.14 -55.17,-32.24 -120.37,-48.36 -195.25,-48.36l-116.43 0 0 795.33 126.82 0c108.55,0 195.25,-37.26 259.74,-111.78 64.84,-74.51 97.09,-174.83 97.09,-300.58zm2005.17 79.53c0,241.12 -55.17,420.61 -165.16,537.76 -110.34,117.15 -280.15,175.54 -509.44,175.54 -214.24,0 -376.53,-58.39 -487.59,-175.54 -110.7,-117.15 -166.23,-293.78 -166.23,-529.51l0 -825.43 455.7 0 0 842.62c0,96.38 17.92,170.54 54.1,222.84 36.18,51.95 87.77,78.1 155.13,78.1 67.71,0 119.3,-24.36 154.77,-73.44 35.46,-49.08 53.02,-121.45 53.02,-217.1l0 -853.02 455.7 0 0 817.18zm1107.38 687.51l-186.66 -412.72c-12.18,-25.79 -20.06,-51.23 -23.65,-76.31 -3.93,-24.72 -6.8,-45.14 -8.95,-61.26l-4.3 0c-3.94,16.84 -8.95,38.69 -14.69,66.28 -5.37,27.23 -13.61,53.74 -24,79.53l-174.11 404.48 -539.54 0 451.4 -750.2 -410.56 -754.49 547.78 0 145.81 396.95c13.26,37.26 25.79,85.98 36.9,146.89l4.3 0c11.1,-68.43 24,-118.23 38.69,-148.68l169.82 -395.16 504.78 0 -423.1 745.89 443.16 758.8 -533.08 0z"/>
 </g>
</svg>
