<?xml version="1.0" encoding="UTF-8"?>
<!DOCTYPE svg PUBLIC "-//W3C//DTD SVG 1.1//EN" "http://www.w3.org/Graphics/SVG/1.1/DTD/svg11.dtd">
<!-- Creator: CorelDRAW X7 -->
<svg xmlns="http://www.w3.org/2000/svg" xml:space="preserve" width="866px" height="866px" version="1.1" style="shape-rendering:geometricPrecision; text-rendering:geometricPrecision; image-rendering:optimizeQuality; fill-rule:evenodd; clip-rule:evenodd"
viewBox="0 0 866 866"
 xmlns:xlink="http://www.w3.org/1999/xlink"
 enable-background="new 0 0 24 24">
 <defs>
  <style type="text/css">
   <![CDATA[
    .fil1 {fill:black}
    .fil0 {fill:white}
   ]]>
  </style>
 </defs>
 <g id="Слой_x0020_1">
  <metadata id="CorelCorpID_0Corel-Layer"/>
  <g id="_298750189792">
   <path class="fil0" d="M433 827c217,0 394,-177 394,-394 0,-217 -177,-394 -394,-394 -217,0 -394,177 -394,394 0,217 177,394 394,394z"/>
   <path class="fil1" d="M219 424l380 -146c18,-6 33,4 27,31l0 0 -64 304c-5,22 -18,27 -36,17l-98 -72 -48 45c-5,6 -9,10 -20,10l7 -100 183 -165c8,-7 -2,-11 -12,-4l-226 142 -97 -30c-21,-7 -22,-21 4,-32l0 0z"/>
  </g>
 </g>
</svg>
