<?xml version="1.0" encoding="UTF-8"?>
<!DOCTYPE svg PUBLIC "-//W3C//DTD SVG 1.1//EN" "http://www.w3.org/Graphics/SVG/1.1/DTD/svg11.dtd">
<!-- Creator: CorelDRAW X7 -->
<svg xmlns="http://www.w3.org/2000/svg" xml:space="preserve" width="866px" height="866px" version="1.1" style="shape-rendering:geometricPrecision; text-rendering:geometricPrecision; image-rendering:optimizeQuality; fill-rule:evenodd; clip-rule:evenodd"
viewBox="0 0 866 866"
 xmlns:xlink="http://www.w3.org/1999/xlink">
 <defs>
  <style type="text/css">
   <![CDATA[
    .fil1 {fill:black}
    .fil0 {fill:white}
   ]]>
  </style>
 </defs>
 <g id="Слой_x0020_1">
  <metadata id="CorelCorpID_0Corel-Layer"/>
  <path class="fil0" d="M433 39c-217,0 -394,177 -394,394 0,217 177,394 394,394 217,0 394,-177 394,-394 0,-217 -177,-394 -394,-394z"/>
  <path class="fil1" d="M682 507l0 1c-13,51 -69,105 -122,117l0 0c-42,8 -85,12 -127,12 -12,0 -25,-1 -37,-1l-58 59c-14,15 -39,5 -39,-15l0 -57c-50,-15 -103,-67 -115,-115l0 -1c-16,-71 -16,-143 0,-214l0 0c13,-51 69,-106 121,-117l1 0c84,-16 170,-16 254,0l0 0c53,11 109,66 122,117l0 0c16,71 16,143 0,214z"/>
  <path class="fil0" d="M551 221c-78,-14 -158,-14 -236,0 -34,8 -77,49 -85,82 -14,65 -14,130 0,194 8,33 51,74 85,82 0,0 0,0 0,0 2,0 3,1 3,3l0 94c0,5 6,7 9,4l44 -46c0,0 36,-37 42,-43 1,-1 2,-1 3,-1 45,1 90,-3 135,-11 34,-8 77,-49 85,-82 14,-64 14,-129 0,-194 -8,-33 -51,-74 -85,-82z"/>
  <path class="fil1" d="M555 414c-5,0 -7,-5 -7,-9 -1,-9 -1,-18 -3,-27 -6,-47 -44,-86 -90,-94 -7,-1 -15,-2 -22,-2 -4,-1 -10,-1 -11,-7 -1,-5 3,-8 7,-9 2,0 3,0 4,0 61,2 4,1 0,0 63,2 115,44 126,106 2,11 3,22 4,33 0,4 -3,9 -8,9z"/>
  <path class="fil1" d="M475 323c-8,-3 -16,-6 -24,-7 -4,-1 -8,-1 -11,-1 -5,-1 -7,-4 -7,-8 1,-4 4,-7 8,-7 14,1 28,4 41,11 26,14 41,36 46,65 0,1 0,3 0,4 1,3 1,6 1,11 0,1 0,2 -1,4 -1,6 -11,7 -13,1 -1,-2 -1,-4 -1,-6 0,-14 -3,-27 -10,-39 -6,-12 -17,-22 -29,-28z"/>
  <path class="fil1" d="M490 389c-3,0 -2,0 -1,0 -5,0 -7,-3 -8,-7 0,-4 -1,-7 -1,-11 -2,-6 -5,-12 -11,-16 -2,-2 -5,-3 -8,-4 -4,-1 -8,-1 -12,-2 -4,-1 -7,-4 -6,-8 1,-4 4,-7 8,-6 24,2 42,14 44,43 1,2 1,4 0,6 0,3 -3,5 -5,5 0,0 0,0 0,0z"/>
  <path class="fil1" d="M552 502c-7,14 -17,26 -31,34 -4,2 -9,3 -14,4 -5,-1 -10,-2 -15,-4 -48,-20 -92,-46 -127,-86 -20,-22 -36,-48 -49,-75 -6,-12 -12,-26 -17,-39 -5,-12 2,-24 10,-33 7,-9 16,-15 26,-20 8,-4 16,-1 21,5 13,14 24,29 33,46 6,10 4,22 -6,29 -3,2 -5,4 -7,6 -2,2 -4,3 -5,5 -3,5 -3,9 -1,14 12,34 33,61 68,76 6,2 11,5 17,4 11,-1 15,-13 22,-19 8,-6 17,-6 25,-1 8,5 15,10 23,16 7,5 15,10 22,16 6,6 9,14 5,22z"/>
  <g id="_298740801072">
  </g>
  <g id="_298740799280">
  </g>
  <g id="_298740800944">
  </g>
  <g id="_298740800240">
  </g>
  <g id="_298740800368">
  </g>
  <g id="_298740797520">
  </g>
  <g id="_298740798064">
  </g>
  <g id="_298740797680">
  </g>
  <g id="_298740797488">
  </g>
  <g id="_298740798800">
  </g>
  <g id="_298740797840">
  </g>
  <g id="_298740799152">
  </g>
  <g id="_298740796208">
  </g>
  <g id="_298740788976">
  </g>
  <g id="_298740785360">
  </g>
  <g id="_298740785936">
  </g>
  <g id="_298740784336">
  </g>
  <g id="_298740782992">
  </g>
  <g id="_298740782832">
  </g>
  <g id="_298740783312">
  </g>
  <g id="_298740784496">
  </g>
  <g id="_298740784624">
  </g>
  <g id="_298740780976">
  </g>
  <g id="_298740781712">
  </g>
  <g id="_298740781296">
  </g>
  <g id="_298740782416">
  </g>
  <g id="_298740781552">
  </g>
  <g id="_298740782256">
  </g>
  <g id="_298740780176">
  </g>
  <g id="_298740779344">
  </g>
 </g>
</svg>
