<?xml version="1.0" encoding="UTF-8"?>
<!DOCTYPE svg PUBLIC "-//W3C//DTD SVG 1.1//EN" "http://www.w3.org/Graphics/SVG/1.1/DTD/svg11.dtd">
<!-- Creator: CorelDRAW 2017 -->
<svg xmlns="http://www.w3.org/2000/svg" xml:space="preserve" width="27.9788mm" height="27.9788mm" version="1.1" style="shape-rendering:geometricPrecision; text-rendering:geometricPrecision; image-rendering:optimizeQuality; fill-rule:evenodd; clip-rule:evenodd"
viewBox="0 0 2797.88 2797.88"
 xmlns:xlink="http://www.w3.org/1999/xlink">
 <defs>
  <style type="text/css">
   <![CDATA[
    .str0 {stroke:#000066;stroke-width:200;stroke-miterlimit:22.9256}
    .fil0 {fill:none}
    .fil5 {fill:#FEFEFE}
    .fil2 {fill:#FFCC00}
    .fil3 {fill:yellow}
    .fil1 {fill:white}
    .fil4 {fill:black;fill-rule:nonzero}
   ]]>
  </style>
 </defs>
 <g id="Слой_x0020_1">
  <metadata id="CorelCorpID_0Corel-Layer"/>
  <g>
   <path class="fil0 str0" d="M1398.94 100c717.39,0 1298.94,581.55 1298.94,1298.94 0,717.39 -581.55,1298.94 -1298.94,1298.94 -717.39,0 -1298.94,-581.55 -1298.94,-1298.94 0,-717.39 581.55,-1298.94 1298.94,-1298.94z"/>
   <path id="1" class="fil1" d="M1398.94 100c717.39,0 1298.94,581.55 1298.94,1298.94 0,717.39 -581.55,1298.94 -1298.94,1298.94 -717.39,0 -1298.94,-581.55 -1298.94,-1298.94 0,-717.39 581.55,-1298.94 1298.94,-1298.94z"/>
  </g>
  <polygon class="fil2" points="884.67,2124.56 776.25,851.22 2021.63,851.22 1910.27,2124.56 1399.36,2267.12 "/>
  <polygon class="fil3" points="1401.89,2157.52 1401.89,951.98 1908.86,954.93 1814.54,2039.62 "/>
  <path class="fil4" d="M1367.79 631.68c0,50.61 -24.6,75.93 -73.81,75.93 -3.95,0 -8.76,-0.49 -14.3,-1.43 -5.57,-0.97 -11.19,-2.4 -16.93,-4.27l0 -47.55c4.07,2.77 8.59,5 13.56,6.72 4.96,1.7 9.08,2.56 12.33,2.56 9.24,0 16.17,-2.85 20.72,-8.51 4.6,-5.7 6.88,-14.49 6.88,-26.42l0 -95.02 51.55 0 0 97.99zm150.51 21.21c0,11.36 -3.06,21.25 -9.12,29.68 -6.07,8.43 -14.62,14.7 -25.57,18.85 -10.95,4.11 -24.14,6.19 -39.57,6.19 -17.87,0 -34.24,-3.01 -49.1,-9.08l0 -46.86c7.16,5.25 15.06,9.53 23.73,12.74 8.68,3.22 16.74,4.85 24.23,4.85 5.62,0 10.01,-1.02 13.11,-3.06 3.09,-2.03 4.64,-4.96 4.64,-8.87 0,-2.77 -0.78,-5.25 -2.32,-7.33 -1.55,-2.12 -3.91,-4.07 -7.05,-5.9 -3.13,-1.83 -8.95,-4.36 -17.5,-7.53 -27.52,-10.59 -41.28,-27.69 -41.28,-51.3 0,-16.53 6.27,-29.76 18.85,-39.65 12.54,-9.9 29.39,-14.86 50.56,-14.86 5.94,0 11.44,0.24 16.45,0.73 5.01,0.45 9.56,1.06 13.68,1.75 4.07,0.73 9.81,2.08 17.22,4.07l0 43.52c-14.41,-7.82 -28.54,-11.72 -42.46,-11.72 -5.74,0 -10.34,1.05 -13.85,3.21 -3.5,2.16 -5.25,5.09 -5.25,8.84 0,3.54 1.43,6.51 4.24,8.87 2.8,2.32 8.71,5.38 17.71,9.12 17.71,7.13 30.24,14.98 37.61,23.49 7.37,8.47 11.04,18.57 11.04,30.25z"/>
  <path class="fil5" d="M1720.07 1901.09l-318.34 91.57 -324.23 -88.63 -21.35 -244.64 160.75 0 10.93 123.8 173.9 46.84 168.78 -48.33c40.73,-465.55 -0.96,18.94 45.18,-517.29l-433.35 0.01 -160.72 0 -13.67 -156.22 781.98 0 -69.86 792.89z"/>
 </g>
</svg>
